<svg xmlns="http://www.w3.org/2000/svg" viewBox="0 0 64 64" fill="none" aria-hidden="true">
  <path
    d="M32 8c-3.2 6.8-4.8 12.2-4.8 16.4 0 4.6 2.1 7.6 4.8 7.6s4.8-3 4.8-7.6C36.8 20.2 35.2 14.8 32 8Z"
    stroke="#1F4D3A"
    stroke-width="2.2"
    stroke-linecap="round"
    stroke-linejoin="round"
  />
  <path
    d="M18.5 14.5c1.2 7.2 3.8 12.2 7.2 15.2 2.6 2.3 5.2 2.8 6.3 1.2 1.1-1.6-.2-4.4-3.2-7.6-3.1-3.3-7-6.6-10.3-8.8Z"
    stroke="#1F4D3A"
    stroke-width="2.2"
    stroke-linecap="round"
    stroke-linejoin="round"
  />
  <path
    d="M45.5 14.5c-1.2 7.2-3.8 12.2-7.2 15.2-2.6 2.3-5.2 2.8-6.3 1.2-1.1-1.6.2-4.4 3.2-7.6 3.1-3.3 7-6.6 10.3-8.8Z"
    stroke="#1F4D3A"
    stroke-width="2.2"
    stroke-linecap="round"
    stroke-linejoin="round"
  />
  <path
    d="M14 28c5.8 4.6 10.8 6.8 14.8 7.4 3.1.5 5.2-.4 5.6-2.2.5-1.9-1.4-4-4.8-5.8C25.8 25.4 20.4 24.4 14 28Z"
    stroke="#1F4D3A"
    stroke-width="2.2"
    stroke-linecap="round"
    stroke-linejoin="round"
  />
  <path
    d="M50 28c-5.8 4.6-10.8 6.8-14.8 7.4-3.1.5-5.2-.4-5.6-2.2-.5-1.9 1.4-4 4.8-5.8C38.2 25.4 43.6 24.4 50 28Z"
    stroke="#1F4D3A"
    stroke-width="2.2"
    stroke-linecap="round"
    stroke-linejoin="round"
  />
  <path
    d="M32 32v22"
    stroke="#1F4D3A"
    stroke-width="2.2"
    stroke-linecap="round"
  />
  <path
    d="M32 42c-4.5 1.2-7.5 4.2-8.5 8"
    stroke="#1F4D3A"
    stroke-width="2.2"
    stroke-linecap="round"
  />
</svg>
